<svg width="1042" height="200" viewBox="0 0 1042 200" fill="none" xmlns="http://www.w3.org/2000/svg">
<path fill-rule="evenodd" clip-rule="evenodd" d="M0 47.0588V177.057C0 189.737 10.4221 200 23.2783 200H179.648C192.514 200 202.927 189.728 202.927 177.057V22.9426C202.927 10.2622 192.505 0 179.648 0H85.05V22.9298C85.05 35.6002 75.2271 45.8716 62.3735 45.8716H57.3352L40.0268 66.4121L41.7791 47.0588H0ZM148.885 66.4302C145.972 61.4401 142.192 57.2703 137.545 53.9207C132.898 50.5712 127.627 48.0762 121.732 46.4357C115.837 44.795 109.698 43.9747 103.317 43.9747C94.5783 43.9747 86.81 45.4102 80.0129 48.2812C73.2157 51.1523 67.4591 55.1512 62.7427 60.2781C58.0264 65.4049 54.4545 71.4887 52.0269 78.5295C49.5994 85.57 48.3857 93.1925 48.3857 101.395C48.3857 109.325 49.7034 116.605 52.3391 123.236C54.9747 129.866 58.6506 135.574 63.367 140.359C68.0833 145.144 73.8053 148.869 80.5331 151.536C87.2608 154.202 94.6475 155.534 102.693 155.534C116.981 155.534 128.702 151.843 137.857 144.461C147.012 137.077 152.562 126.346 154.503 112.264H125.997C125.026 118.827 122.633 124.056 118.818 127.952C115.004 131.848 109.559 133.797 102.485 133.797C97.9075 133.797 94.0233 132.772 90.8325 130.721C87.6425 128.67 85.1108 126.038 83.238 122.825C81.3653 119.612 80.0129 116.023 79.1806 112.059C78.3483 108.094 77.9322 104.197 77.9322 100.37C77.9322 96.405 78.3483 92.4058 79.1806 88.3733C80.0129 84.34 81.4347 80.6487 83.4458 77.2991C85.4575 73.9496 88.0583 71.2152 91.2492 69.0962C94.4392 66.9771 98.3925 65.9176 103.109 65.9176C115.732 65.9176 123.015 72.0013 124.957 84.1692H153.879C153.463 77.3332 151.798 71.4203 148.885 66.4302Z" fill="#F0F0F0"/>
<path fill-rule="evenodd" clip-rule="evenodd" d="M316.785 95.7925H331.442C330.887 90.6992 329.555 86.2975 327.445 82.588C325.335 78.8786 322.642 75.8058 319.367 73.3698C316.091 70.9338 312.316 69.1345 308.04 67.9718C303.765 66.8092 299.185 66.2278 294.299 66.2278C287.526 66.2278 281.585 67.4182 276.477 69.7988C271.369 72.1795 267.122 75.446 263.735 79.5983C260.348 83.7508 257.822 88.6225 256.157 94.2142C254.491 99.8067 253.658 105.813 253.658 112.236C253.658 118.657 254.518 124.554 256.24 129.924C257.961 135.295 260.515 139.917 263.902 143.793C267.288 147.668 271.507 150.658 276.56 152.762C281.612 154.866 287.414 155.917 293.966 155.917C304.959 155.917 313.648 153.039 320.032 147.281C326.417 141.523 330.387 133.329 331.942 122.699H317.451C316.562 129.343 314.147 134.492 310.206 138.146C306.263 141.8 300.795 143.627 293.799 143.627C289.357 143.627 285.527 142.741 282.307 140.969C279.087 139.197 276.477 136.845 274.478 133.911C272.479 130.976 271.008 127.627 270.064 123.862C269.121 120.098 268.648 116.222 268.648 112.236C268.648 107.917 269.092 103.737 269.981 99.6958C270.869 95.6542 272.341 92.0833 274.395 88.9825C276.449 85.8825 279.197 83.3908 282.64 81.5083C286.082 79.626 290.357 78.6847 295.465 78.6847C301.461 78.6847 306.236 80.1796 309.789 83.1693C313.342 86.1592 315.674 90.3667 316.785 95.7925ZM355.49 111.239C355.49 106.035 356.183 101.412 357.572 97.37C358.96 93.3283 360.875 89.9233 363.318 87.1558C365.761 84.3875 368.62 82.2835 371.896 80.844C375.172 79.4045 378.642 78.6847 382.306 78.6847C385.97 78.6847 389.44 79.4045 392.716 80.844C395.992 82.2835 398.851 84.3875 401.294 87.1558C403.737 89.9233 405.652 93.3283 407.04 97.37C408.428 101.412 409.122 106.035 409.122 111.239C409.122 116.443 408.428 121.066 407.04 125.107C405.652 129.149 403.737 132.527 401.294 135.239C398.851 137.953 395.992 140.028 392.716 141.468C389.44 142.908 385.97 143.627 382.306 143.627C378.642 143.627 375.172 142.908 371.896 141.468C368.62 140.028 365.761 137.953 363.318 135.239C360.875 132.527 358.96 129.149 357.572 125.107C356.183 121.066 355.49 116.443 355.49 111.239ZM340.499 111.239C340.499 117.551 341.387 123.419 343.164 128.845C344.941 134.271 347.606 139.004 351.159 143.046C354.712 147.088 359.098 150.243 364.317 152.512C369.537 154.782 375.532 155.917 382.306 155.917C389.191 155.917 395.214 154.782 400.378 152.512C405.542 150.243 409.9 147.088 413.453 143.046C417.007 139.004 419.672 134.271 421.448 128.845C423.225 123.419 424.113 117.551 424.113 111.239C424.113 104.927 423.225 99.0308 421.448 93.55C419.672 88.0692 417.007 83.3078 413.453 79.2661C409.9 75.2245 405.542 72.0411 400.378 69.7157C395.214 67.3905 389.191 66.2278 382.306 66.2278C375.532 66.2278 369.537 67.3905 364.317 69.7157C359.098 72.0411 354.712 75.2245 351.159 79.2661C347.606 83.3078 344.941 88.0692 343.164 93.55C341.387 99.0308 340.499 104.927 340.499 111.239ZM434.996 68.0102V154.702H449.153V100.609C449.153 98.9483 449.57 96.8717 450.402 94.3808C451.236 91.8892 452.568 89.4808 454.4 87.1558C456.232 84.83 458.62 82.8371 461.562 81.1762C464.505 79.5153 468.031 78.6847 472.139 78.6847C475.359 78.6847 477.997 79.1554 480.051 80.0966C482.105 81.0378 483.742 82.3665 484.964 84.0825C486.186 85.7992 487.047 87.82 487.546 90.145C488.046 92.4708 488.296 95.0175 488.296 97.7858V154.702H502.453V100.609C502.453 93.965 504.452 88.65 508.449 84.6642C512.447 80.6779 517.943 78.6847 524.939 78.6847C528.382 78.6847 531.185 79.1831 533.351 80.1796C535.516 81.1762 537.209 82.5326 538.431 84.2492C539.652 85.965 540.485 87.9858 540.929 90.3117C541.373 92.6367 541.595 95.1283 541.595 97.7858V154.702H555.753V91.1417C555.753 86.7125 555.059 82.9202 553.671 79.7644C552.283 76.6086 550.34 74.0342 547.842 72.0411C545.342 70.048 542.345 68.5808 538.847 67.6397C535.349 66.6984 531.435 66.2278 527.104 66.2278C521.442 66.2278 516.25 67.5012 511.531 70.048C506.812 72.5947 503.008 76.1934 500.122 80.844C498.345 75.529 495.291 71.7642 490.961 69.5497C486.63 67.3351 481.8 66.2278 476.47 66.2278C464.366 66.2278 455.094 71.0998 448.654 80.844H448.321V68.0102H434.996ZM634.266 102.934H584.797C585.019 99.6125 585.741 96.4842 586.962 93.55C588.184 90.6158 589.849 88.0417 591.959 85.8267C594.069 83.6125 596.595 81.8682 599.537 80.5948C602.481 79.3215 605.784 78.6847 609.448 78.6847C613.002 78.6847 616.249 79.3215 619.192 80.5948C622.135 81.8682 624.688 83.5842 626.854 85.7433C629.019 87.9033 630.74 90.4775 632.017 93.4667C633.294 96.4567 634.044 99.6125 634.266 102.934ZM647.924 126.852H633.932C632.712 132.499 630.185 136.707 626.354 139.475C622.523 142.242 617.61 143.627 611.613 143.627C606.95 143.627 602.897 142.852 599.454 141.302C596.012 139.752 593.181 137.675 590.96 135.073C588.739 132.471 587.129 129.482 586.13 126.104C585.13 122.727 584.686 119.156 584.797 115.391H649.257C649.478 110.187 649.007 104.706 647.841 98.9483C646.675 93.19 644.565 87.875 641.512 83.0032C638.457 78.1311 634.405 74.1172 629.352 70.9615C624.3 67.8057 617.942 66.2278 610.281 66.2278C604.396 66.2278 598.982 67.3351 594.042 69.5497C589.1 71.7642 584.825 74.8647 581.216 78.8509C577.607 82.8371 574.803 87.5433 572.805 92.9692C570.806 98.3942 569.807 104.373 569.807 110.907C570.028 117.44 571 123.474 572.722 129.011C574.442 134.547 577.024 139.308 580.467 143.295C583.909 147.281 588.156 150.382 593.208 152.596C598.261 154.811 604.229 155.917 611.114 155.917C620.886 155.917 628.992 153.482 635.432 148.61C641.872 143.738 646.036 136.485 647.924 126.852ZM680.966 68.0102V43.75H666.807V68.0102H652.151V80.3947H666.807V135.906C666.807 139.892 667.197 143.103 667.974 145.539C668.751 147.975 669.945 149.858 671.555 151.187C673.165 152.515 675.275 153.428 677.884 153.927C680.493 154.425 683.631 154.674 687.295 154.674H698.122V142.217H691.626C689.405 142.217 687.6 142.134 686.212 141.968C684.824 141.802 683.742 141.443 682.964 140.888C682.187 140.335 681.66 139.56 681.382 138.563C681.104 137.567 680.966 136.238 680.966 134.577V80.3947H698.122V68.0102H680.966ZM768.14 98.45H791.292C790.958 92.9133 789.626 88.1242 787.294 84.0825C784.962 80.0412 781.937 76.664 778.217 73.9512C774.497 71.2383 770.277 69.2175 765.558 67.8888C760.839 66.56 755.925 65.8957 750.817 65.8957C743.822 65.8957 737.603 67.0583 732.162 69.3836C726.722 71.7089 722.113 74.9477 718.337 79.1C714.562 83.2523 711.703 88.18 709.76 93.8825C707.817 99.585 706.845 105.757 706.845 112.402C706.845 118.824 707.9 124.72 710.01 130.091C712.119 135.461 715.062 140.083 718.837 143.959C722.613 147.835 727.193 150.852 732.579 153.011C737.964 155.171 743.877 156.25 750.317 156.25C761.755 156.25 771.137 153.26 778.467 147.281C785.795 141.302 790.237 132.609 791.792 121.204H768.972C768.195 126.519 766.28 130.755 763.226 133.911C760.172 137.067 755.814 138.644 750.151 138.644C746.486 138.644 743.377 137.813 740.823 136.153C738.27 134.492 736.243 132.36 734.744 129.758C733.245 127.156 732.162 124.249 731.496 121.038C730.83 117.827 730.497 114.672 730.497 111.571C730.497 108.36 730.83 105.121 731.496 101.855C732.162 98.5883 733.301 95.5983 734.911 92.8858C736.521 90.1725 738.602 87.9583 741.156 86.2417C743.711 84.5258 746.875 83.6675 750.651 83.6675C760.756 83.6675 766.585 88.595 768.14 98.45ZM802.514 43.75V154.702H826.166V109.08C826.166 100.332 827.609 94.0483 830.496 90.2283C833.383 86.4083 838.05 84.4983 844.483 84.4983C850.15 84.4983 854.092 86.2417 856.317 89.73C858.533 93.2175 859.642 98.505 859.642 105.592V154.755H883.3V101.273C883.3 95.9583 882.825 91.1142 881.883 86.74C880.933 82.3665 879.3 78.6571 876.966 75.6121C874.633 72.567 871.441 70.1864 867.391 68.4701C863.333 66.7538 858.142 65.8957 851.817 65.8957C847.375 65.8957 842.825 67.0306 838.158 69.3006C833.492 71.5705 829.663 75.1968 826.665 80.1796H826.166V43.75H802.514ZM898.3 94.63C898.633 89.0933 900.025 84.4983 902.466 80.844C904.908 77.1899 908.016 74.2557 911.791 72.0411C915.566 69.8265 919.817 68.2487 924.533 67.3074C929.25 66.3662 934 65.8957 938.775 65.8957C943.108 65.8957 947.492 66.2002 951.933 66.8092C956.375 67.4182 960.425 68.6085 964.092 70.3802C967.758 72.1518 970.758 74.6155 973.083 77.7712C975.416 80.9271 976.583 85.1067 976.583 90.3117V134.99C976.583 138.866 976.808 142.575 977.25 146.118C977.691 149.662 979.592 152.983 980.708 154.755H956.717C956.275 153.427 954.791 151.406 954.516 150.022C954.241 148.637 954.042 147.226 953.933 145.786C950.158 149.662 945.717 152.374 940.608 153.925C935.5 155.475 930.283 156.25 924.95 156.25C920.842 156.25 917.008 155.752 913.458 154.755C909.908 153.758 906.792 152.208 904.133 150.105C901.467 148.001 899.383 145.343 897.883 142.133C896.383 138.921 895.633 135.101 895.633 130.672C895.633 125.8 896.5 121.786 898.217 118.63C899.942 115.474 902.158 112.955 904.883 111.072C907.6 109.191 910.708 107.778 914.208 106.838C917.708 105.897 921.233 105.149 924.783 104.595C928.333 104.042 931.833 103.598 935.275 103.267C938.717 102.934 941.775 102.436 944.441 101.772C947.1 101.107 949.217 100.138 950.767 98.865C952.325 97.5917 953.041 95.7367 952.933 93.3008C952.933 90.7542 952.517 88.7333 951.683 87.2383C950.85 85.7433 949.742 84.5808 948.35 83.7508C946.967 82.9202 945.358 82.3665 943.525 82.0897C941.691 81.8128 939.717 81.6745 937.608 81.6745C932.942 81.6745 929.283 82.671 926.617 84.6642C923.95 86.6575 922.4 89.9792 921.95 94.63H898.3ZM952.933 112.069C951.933 112.955 950.683 113.647 949.183 114.146C947.683 114.644 946.075 115.059 944.358 115.391C942.633 115.723 940.833 116 938.941 116.222C937.058 116.443 935.167 116.72 933.275 117.052C931.5 117.384 929.75 117.827 928.033 118.381C926.308 118.934 924.808 119.682 923.533 120.623C922.258 121.564 921.233 122.755 920.45 124.194C919.675 125.633 919.292 127.461 919.292 129.675C919.292 131.779 919.675 133.551 920.45 134.99C921.233 136.43 922.283 137.565 923.617 138.395C924.95 139.226 926.508 139.807 928.283 140.139C930.058 140.471 931.891 140.637 933.775 140.637C938.441 140.637 942.05 139.863 944.608 138.312C947.158 136.762 949.05 134.907 950.267 132.748C951.492 130.588 952.242 128.402 952.517 126.187C952.792 123.972 952.933 122.201 952.933 120.872V112.069ZM1022.67 68.5191V43.75H999.025V68.5191H984.7V84H999.025V134.658C999.025 138.977 999.75 142.464 1001.19 145.122C1002.63 147.779 1004.61 149.827 1007.1 151.267C1009.6 152.707 1012.49 153.676 1015.77 154.174C1019.04 154.672 1022.51 154.922 1026.17 154.922C1028.51 154.922 1030.89 154.866 1033.33 154.755C1035.78 154.644 1038 154.423 1040 154.091V135.821C1038.89 136.042 1037.72 136.208 1036.5 136.319C1035.28 136.43 1034 136.485 1032.67 136.485C1028.67 136.485 1026.01 135.821 1024.67 134.492C1023.34 133.163 1022.67 130.506 1022.67 126.519V84H1040V68.5191H1022.67Z" fill="#F0F0F0"/>
</svg>
